<?xml version="1.0" encoding="utf-8"?>
<!-- Generator: Adobe Illustrator 22.0.1, SVG Export Plug-In . SVG Version: 6.00 Build 0)  -->
<svg version="1.1" id="图层_1" xmlns="http://www.w3.org/2000/svg" xmlns:xlink="http://www.w3.org/1999/xlink" x="0px" y="0px"
	 viewBox="0 0 32 32" style="enable-background:new 0 0 32 32;" xml:space="preserve">
<style type="text/css">
	.st0{fill:#9B9B9B;}
	.st1{fill:#F08300;}
</style>
<g id="Symbols">
	<g id="icon_x2F_server" transform="translate(0.000000, -1.000000)">
		<g id="service" transform="translate(0.000000, 1.000000)">
			<path id="Shape" class="st0" d="M16,1C8.9,1,3.1,6.2,2,12.9c-1.2,0.4-2,1.5-2,2.8c0,1.4,1,2.6,2.4,2.8h0.1c0.6,0,1-0.3,1-0.8
				c0,0,0-0.1,0-0.1c0,0,0,0,0,0c-0.2-0.8-0.2-1.6-0.2-2.5C3.2,8,9,2.3,16,2.3V1z M1.4,15.7c0-0.5,0.2-0.9,0.5-1.1
				c0,0.2,0,0.4,0,0.5c0,0.6,0,1.2,0.1,1.8C1.6,16.7,1.4,16.2,1.4,15.7z M2.5,17.2c0.1,0,0.2-0.1,0.2-0.1S2.6,17.2,2.5,17.2z
				 M2.4,17.3c0.1-0.1,0.2-0.1,0.2-0.2C2.6,17.2,2.5,17.2,2.4,17.3z M2.8,17.1L2.8,17.1L2.8,17.1z M2.8,17.1H2.7H2.8z M2.8,17.1H2.6
				H2.8z M2.7,17.1c0,0.1-0.1,0.1-0.2,0.2C2.6,17.2,2.6,17.1,2.7,17.1z M16,2.3c7,0,12.8,5.7,12.8,12.8c0,0.9-0.1,1.7-0.2,2.5
				c0,0,0,0,0,0c0,0,0,0.1,0,0.1c0,0.5,0.4,0.8,1,0.8h0.1c1.3-0.3,2.4-1.4,2.4-2.8c0-1.3-0.9-2.4-2-2.8C28.9,6.2,23.1,1,16,1V2.3z
				 M30.6,15.7c0,0.5-0.2,1-0.6,1.2c0.1-0.6,0.1-1.2,0.1-1.8c0-0.2,0-0.4,0-0.5C30.4,14.8,30.6,15.2,30.6,15.7z M29.7,17.2
				c-0.1,0-0.2-0.1-0.2-0.1S29.6,17.2,29.7,17.2z M29.7,17.3c-0.1-0.1-0.2-0.1-0.2-0.2C29.5,17.2,29.6,17.2,29.7,17.3z M29.3,17.1
				h0.2H29.3z M29.4,17.1h0.2H29.4z M29.4,17.1c0,0.1,0.1,0.1,0.2,0.2C29.5,17.2,29.5,17.1,29.4,17.1z"/>
			<path id="Shape_1_" class="st0" d="M9.5,15.2c0,0.7,0.5,1.2,1.2,1.2s1.2-0.5,1.2-1.2S11.3,14,10.7,14S9.5,14.5,9.5,15.2z"/>
			<path id="Shape_2_" class="st0" d="M20.1,14.9c0,0.4,0.2,0.8,0.6,1.1c0.4,0.2,0.8,0.2,1.2,0c0.4-0.2,0.6-0.6,0.6-1.1
				c0-0.7-0.5-1.2-1.2-1.2C20.7,13.7,20.1,14.2,20.1,14.9z"/>
			<path id="Shape_3_" class="st1" d="M16.2,24.8c-6.3,0-7.2-5.6-7.2-5.7c0-0.1,0-0.3,0.1-0.4c0.1-0.1,0.2-0.2,0.4-0.2h13
				c0.1,0,0.3,0.1,0.4,0.2c0.1,0.1,0.1,0.2,0.1,0.4C23,19.1,22.5,24.8,16.2,24.8z M10.1,19.6c0.4,1.3,1.7,4.2,6,4.2
				c4.3,0,5.5-3,5.8-4.2H10.1z"/>
			<path id="Shape_4_" class="st0" d="M11.8,31c-0.1,0-0.2,0-0.4-0.1c-0.2-0.1-0.3-0.4-0.3-0.7l0.3-2.7c-4.1-1.9-6.8-6.1-6.8-10.8
				C4.7,10.4,9.8,5.1,16,5.1s11.3,5.3,11.3,11.7S22.2,28.6,16,28.6h-0.2l-3.6,2.4C12.1,31,11.9,31,11.8,31z M16,6.5
				c-5.5,0-10,4.6-10,10.3c0,4.3,2.6,8.2,6.4,9.7c0.3,0.1,0.5,0.4,0.4,0.7L12.7,29l2.6-1.7c0.1-0.1,0.2-0.1,0.4-0.1H16
				c5.5,0,10-4.6,10-10.3S21.5,6.5,16,6.5z"/>
		</g>
	</g>
</g>
</svg>
